<svg width="34px" height="44px" viewBox="0 0 34 44" version="1.1" xmlns="http://www.w3.org/2000/svg" xmlns:xlink="http://www.w3.org/1999/xlink">
    <defs>
        <rect id="path-1" x="7" y="2" width="34" height="44" rx="4"></rect>
    </defs>
    <g id="Page-1" stroke="none" stroke-width="1" fill="none" fill-rule="evenodd">
        <g id="Artboard" transform="translate(-7.000000, -2.000000)">
            <g id="Rectangle">
                <use fill="#FFFFFF" fill-rule="evenodd" xlink:href="#path-1"></use>
                <rect stroke="#000000" stroke-width="2" x="8" y="3" width="32" height="42" rx="4"></rect>
            </g>
            <path d="M17.515,9.52 L19.535,9.52 L19.535,8 L13.925,8 L13.925,9.52 L15.935,9.52 L15.935,15 L17.515,15 L17.515,9.52 Z M25.335,15 L24.815,13.67 L22.205,13.67 L21.695,15 L19.965,15 L22.755,8 L24.265,8 L27.065,15 L25.335,15 Z M24.285,12.21 L23.715,10.81 C23.645,10.64 23.555,10.41 23.505,10.24 C23.465,10.41 23.365,10.65 23.305,10.81 L22.735,12.21 L24.285,12.21 Z M27.955,8 L31.335,8 C33.075,8 33.655,8.95 33.655,9.9 C33.655,10.52 33.475,11.08 32.885,11.35 C33.615,11.63 33.885,12.35 33.885,12.9 C33.885,13.92 33.245,15 31.465,15 L27.955,15 L27.955,8 Z M31.185,10.71 C31.785,10.71 32.045,10.47 32.045,10.09 C32.045,9.8 31.945,9.48 31.345,9.48 L29.535,9.48 L29.535,10.71 L31.185,10.71 Z M31.535,13.51 C32.105,13.51 32.285,13.14 32.285,12.86 C32.285,12.51 32.115,12.13 31.265,12.13 L29.535,12.13 L29.535,13.51 L31.535,13.51 Z M11.75,25 L16.68,25 L16.68,23.47 L13.33,23.47 L13.33,18 L11.75,18 L11.75,25 Z M17.21,25 L18.79,25 L18.79,18 L17.21,18 L17.21,25 Z M26.96,25 L26.96,18 L25.49,18 L23.83,21.48 C23.76,21.63 23.72,21.77 23.67,21.9 C23.62,21.77 23.57,21.63 23.5,21.48 L21.9,18 L20.29,18 L20.29,25 L21.87,25 L21.87,21.46 C21.91,21.56 21.89,21.53 21.91,21.57 L23.63,25.12 L25.33,21.55 C25.35,21.52 25.34,21.56 25.38,21.46 L25.38,25 L26.96,25 Z M28.47,25 L30.05,25 L30.05,18 L28.47,18 L28.47,25 Z M34.69,19.52 L36.71,19.52 L36.71,18 L31.1,18 L31.1,19.52 L33.11,19.52 L33.11,25 L34.69,25 L34.69,19.52 Z" id="TAB-LIMIT" fill="#000000"></path>
            <path d="M19.878,41 L20.364,37.832 L18.456,37.832 L18.744,35.816 L20.67,35.816 L21.048,33.278 L19.14,33.278 L19.428,31.262 L21.372,31.262 L21.786,28.4 L23.838,28.4 L23.406,31.262 L25.584,31.262 L26.034,28.4 L28.068,28.4 L27.636,31.262 L29.544,31.262 L29.256,33.278 L27.33,33.278 L26.952,35.816 L28.86,35.816 L28.554,37.832 L26.646,37.832 L26.16,41 L24.108,41 L24.594,37.832 L22.416,37.832 L21.93,41 L19.878,41 Z M22.722,35.816 L24.9,35.816 L25.278,33.278 L23.1,33.278 L22.722,35.816 Z" id="#" fill="#000000"></path>
        </g>
    </g>
</svg>
